<?xml version="1.0" encoding="UTF-8"?>
<svg width="88px" height="87px" viewBox="0 0 88 87" version="1.1" xmlns="http://www.w3.org/2000/svg" xmlns:xlink="http://www.w3.org/1999/xlink">
    <title>Shape</title>
    <g id="Page-1" stroke="none" stroke-width="1" fill="none" fill-rule="evenodd">
        <path d="M43.89646,81.0785562 C44.77536,81.0785562 45.60546,80.9809062 46.53316,80.9320762 L48.73046,85.0824662 C49.21876,86.1078562 50.29296,86.6937962 51.51366,86.4984762 C52.63676,86.3031662 53.46676,85.3754362 53.66206,84.2523862 L54.29686,79.5648862 C56.00586,79.1254342 57.66606,78.4418402 59.27736,77.8070752 L62.74416,80.8832462 C63.57426,81.7133262 64.79496,81.8598062 65.86916,81.2738762 C66.84566,80.6879362 67.28516,79.5648862 67.08986,78.3930124 L66.06446,73.8031662 C67.48046,72.8266062 68.89646,71.6547362 70.16606,70.4340262 L74.46286,72.2406662 C75.58596,72.6801262 76.70896,72.3871562 77.53906,71.4105862 C78.22266,70.5805162 78.36916,69.3598062 77.73436,68.3832462 L75.24416,64.3793562 C76.22066,62.9633562 77.05076,61.4008562 77.83206,59.7894562 L82.56836,60.0336562 C83.69136,60.0824562 84.76566,59.3988562 85.15626,58.2758562 C85.54686,57.2015562 85.15626,55.9808562 84.22856,55.2973562 L80.56636,52.3676562 C81.00586,50.7074562 81.34766,48.9984562 81.49416,47.1430562 L85.93746,45.7269562 C87.06056,45.3851562 87.79296,44.4086562 87.79296,43.2367562 C87.79296,42.0648562 87.06056,41.1371562 85.93746,40.7465562 L81.49416,39.3305562 C81.34766,37.5238562 81.00586,35.8148562 80.56636,34.1058562 L84.22856,31.1762562 C85.15626,30.4926562 85.54686,29.3695562 85.15626,28.2953562 C84.76566,27.1723562 83.69136,26.4887562 82.56836,26.5375562 L77.83206,26.6840562 C77.05076,25.0726562 76.22066,23.5590562 75.24416,22.0941562 L77.73436,18.0902562 C78.36916,17.1625562 78.22266,15.9418562 77.53906,15.1117562 C76.70896,14.1351562 75.58596,13.8422562 74.46286,14.2816562 L70.16606,16.0394562 C68.89646,14.8676562 67.48046,13.6957562 66.06446,12.6703562 L67.08986,8.12935622 C67.28516,6.95745622 66.84566,5.83445622 65.86916,5.24845622 C64.74606,4.66255622 63.57426,4.76015622 62.74416,5.63915622 L59.27736,8.71525622 C57.66606,7.98285622 56.00586,7.44575622 54.29686,6.90865622 L53.66206,2.31875622 C53.46676,1.14695622 52.63676,0.219156223 51.51366,0.0238562226 C50.29296,-0.122643777 49.21876,0.414456223 48.73046,1.39105622 L46.53316,5.59025622 C45.60546,5.49265622 44.77536,5.49265622 43.89646,5.49265622 C42.96876,5.49265622 42.13866,5.49265622 41.21096,5.59025622 L39.01366,1.39105622 C38.52536,0.414456223 37.45116,-0.122643777 36.23046,0.0238562226 C35.15626,0.219156223 34.27736,1.14695622 34.13086,2.31875622 L33.49606,6.90865622 C31.78706,7.44575622 30.12696,7.98285622 28.46676,8.71525622 L25.04886,5.63915622 C24.21876,4.80905622 22.99806,4.66255622 21.92386,5.24845622 C20.94726,5.83445622 20.50786,6.95745622 20.70316,8.12935622 L21.67966,12.6703562 C20.26366,13.6957562 18.89646,14.8676562 17.57816,16.0394562 L13.33006,14.2816562 C12.20706,13.8422562 11.03516,14.1351562 10.25386,15.1117562 C9.52146,15.9418562 9.42386,17.1625562 10.00976,18.0902562 L12.49996,22.0941562 C11.52346,23.5590562 10.69336,25.0726562 9.91206,26.6840562 L5.22456,26.5375562 C4.05276,26.4887562 2.97851,27.1723562 2.63672,28.2465562 C2.29492,29.3695562 2.63672,30.4926562 3.51566,31.1762562 L7.22656,34.1058562 C6.78706,35.8148562 6.39646,37.5238562 6.29886,39.3305562 L1.85547,40.7465562 C0.68359,41.1371562 0,42.0648562 0,43.2367562 C0,44.4574562 0.68359,45.3851562 1.85547,45.7269562 L6.29886,47.1430562 C6.39646,48.9984562 6.78706,50.7074562 7.22656,52.3676562 L3.56446,55.2973562 C2.63672,55.9808562 2.29492,57.2015562 2.63672,58.2758562 C2.97851,59.3988562 4.05276,60.0824562 5.22456,60.0336562 L9.91206,59.7894562 C10.69336,61.4008562 11.52346,62.9633562 12.49996,64.3793562 L10.00976,68.3832462 C9.42386,69.3598062 9.52146,70.5805162 10.25386,71.4105862 C11.03516,72.3871562 12.20706,72.6801262 13.33006,72.2406662 L17.57816,70.4340262 C18.89646,71.6547362 20.26366,72.8266062 21.67966,73.8031662 L20.70316,78.3930124 C20.50786,79.5648862 20.89846,80.6879362 21.92386,81.2738762 C22.99806,81.8598062 24.16996,81.7133262 25.04886,80.8832462 L28.46676,77.8070752 C30.12696,78.4418402 31.78706,79.1254342 33.49606,79.5648862 L34.13086,84.2523862 C34.27736,85.3754362 35.15626,86.3031662 36.27926,86.4984762 C37.45116,86.6937962 38.52536,86.1078562 39.01366,85.0824662 L41.21096,80.9320762 C42.13866,80.9809062 42.96876,81.0785562 43.89646,81.0785562 Z M54.10156,39.9652562 C52.05076,34.9359562 48.19336,32.2992562 43.65236,32.2992562 C43.11526,32.2992562 42.43166,32.3480562 41.21096,32.5922562 L31.34766,15.7465562 C35.15626,13.9887562 39.40426,13.0121562 43.89646,13.0121562 C59.61916,13.0121562 71.97266,24.7797562 73.53516,39.9652562 L54.10156,39.9652562 Z M14.11136,43.2855562 C14.11136,33.4223562 18.60356,24.6820562 25.73246,19.1644562 L35.64456,36.1078562 C33.59376,38.4515562 32.71486,40.8930562 32.71486,43.3832562 C32.71486,45.7269562 33.54496,47.9730562 35.59566,50.4144562 L25.39066,67.1137562 C18.45706,61.5961562 14.11136,53.0023562 14.11136,43.2855562 Z M39.35546,43.3344562 C39.35546,40.8930562 41.45506,38.9887562 43.74996,38.9887562 C46.19136,38.9887562 48.14456,40.8930562 48.14456,43.3344562 C48.14456,45.7269562 46.19136,47.7289562 43.74996,47.7289562 C41.45506,47.7289562 39.35546,45.7269562 39.35546,43.3344562 Z M43.89646,73.5101962 C39.20896,73.5101962 34.86326,72.4848062 30.95706,70.6293362 L41.11326,54.0765562 C42.28516,54.3207562 43.06636,54.3695562 43.65236,54.3695562 C48.19336,54.3695562 52.05076,51.7328562 54.10156,46.5570562 L73.53516,46.5570562 C71.97266,61.7426562 59.61916,73.5101962 43.89646,73.5101962 Z" id="Shape" fill="#000000" fill-rule="nonzero"></path>
    </g>
</svg>