<?xml version="1.0" encoding="UTF-8"?>
<svg width="16px" height="16px" viewBox="0 0 16 16" version="1.1" xmlns="http://www.w3.org/2000/svg" xmlns:xlink="http://www.w3.org/1999/xlink">
    <title>menu-bar-icon</title>
    <g id="menu-bar-icon" stroke="none" stroke-width="1" fill="none" fill-rule="evenodd">
        <path d="M8.10449219,14.0439453 C8.828125,14.0439453 9.25488281,13.5986328 9.23632812,12.8193359 L9.08789062,9.36816406 L12.2421875,11.4462891 C12.4462891,11.5761719 12.6875,11.6503906 12.9658203,11.6503906 C13.5410156,11.6503906 14.0976562,11.2050781 14.0976562,10.4628906 C14.0976562,9.99902344 13.875,9.68359375 13.4111328,9.42382812 L10.0898438,7.62402344 L13.4111328,5.82421875 C13.875,5.56445312 14.0976562,5.24902344 14.0976562,4.78515625 C14.0976562,4.04296875 13.5410156,3.59765625 12.9658203,3.59765625 C12.6875,3.59765625 12.4462891,3.671875 12.2421875,3.80175781 L9.08789062,5.82421875 L9.23632812,2.22460938 C9.25488281,1.4453125 8.828125,1 8.10449219,1 C7.34375,1 6.87988281,1.48242188 6.8984375,2.22460938 L7.046875,5.82421875 L3.85546875,3.80175781 C3.65136719,3.671875 3.41015625,3.59765625 3.13183594,3.59765625 C2.55664062,3.59765625 2,4.04296875 2,4.78515625 C2,5.24902344 2.22265625,5.56445312 2.68652344,5.82421875 L6.0078125,7.62402344 L2.68652344,9.42382812 C2.22265625,9.68359375 2,9.99902344 2,10.4628906 C2,11.2050781 2.55664062,11.6503906 3.13183594,11.6503906 C3.41015625,11.6503906 3.65136719,11.5761719 3.85546875,11.4462891 L7.046875,9.36816406 L6.8984375,12.8193359 C6.87988281,13.5615234 7.34375,14.0439453 8.10449219,14.0439453 Z" id="*" fill="#FFFFFF" fill-rule="nonzero"></path>
    </g>
</svg>